<svg width="1200" height="1200" xmlns="http://www.w3.org/2000/svg" xmlns:xlink="http://www.w3.org/1999/xlink" version="1.1"><g transform="scale(11.994479876094621) translate(0.002301110161675446, 0.07301415337456874)">                        <g fill="#ffffff"><g xmlns="http://www.w3.org/2000/svg"><path d="M52.1,51.6c11.9,0,21.6-10.2,21.6-22.7c0-12.5-9.7-22.7-21.6-22.7S30.5,16.4,30.5,28.9   C30.5,41.4,40.2,51.6,52.1,51.6z M52.1,7.4c11.3,0,20.6,9.7,20.6,21.6s-9.2,21.6-20.6,21.6c-11.3,0-20.6-9.7-20.6-21.6   S40.8,7.4,52.1,7.4z"/><path d="M95,78.6c-2.5-20.3-28.7-26.7-31.7-27.4L63,51.2l-10.7,8.3l-10.7-8.3l-0.3,0.1c-2.7,0.6-16.2,4-24.8,13.1   L9.7,39.5L5,40.8l8.2,29.2c0,0,0,0,0,0c-0.5,0.3-0.9,0.7-1.3,1.1c-1.5,1.6-2.3,3.7-2.3,5.8c0,3.8,2.5,7.1,6,8.2   c0.4,0.4,2.2,2.1,4,2.9l0,0c0.1,0,0.1,0,0.2,0.1c0.1,0,0.1,0,0.2,0.1l0,0c5.3,2.2,11.5,3.8,18.5,4.7l0.6,0.1V67.4   c2.7,0.1,15.1,0.7,23.1,5.8l0,20.4l1.1,0l0-20.4c7.9-5,19.8-5.7,22.5-5.8v9.2c-0.5-0.1-0.9-0.1-1.4-0.1c-4.7,0-8.6,3.9-8.6,8.6   c0,4.7,3.9,8.6,8.6,8.6c4.7,0,8.6-3.9,8.6-8.6c0,0,0-0.1,0-0.1c0.8-1.3,1.8-3.6,1.9-3.8C95,80.4,95.1,79.5,95,78.6z M8.9,40.9   l6.9,24.7l0,0l0.8,3c-0.1,0-0.2,0-0.3,0c0,0-0.1,0-0.1,0l-0.1,0c-0.2,0.1-0.4,0.1-0.7,0.2c0,0-0.1,0-0.2,0.1   c-0.2,0.1-0.5,0.2-0.7,0.3l-0.1,0c-0.2,0.1-0.3,0.2-0.5,0.2L6.3,41.6L8.9,40.9z M10.7,77.1c0-1.9,0.7-3.7,2-5.1   c0.3-0.4,0.7-0.7,1.1-1c0.2-0.1,0.4-0.3,0.6-0.4c0.2-0.1,0.4-0.2,0.6-0.3l0.1,0c0.2-0.1,0.4-0.2,0.6-0.2l0.1,0   c0.2-0.1,0.4-0.1,0.6-0.2l0.2,0c0.2,0,0.4-0.1,0.6-0.1l0.2,0c0.3,0,0.5,0,0.8,0c4.1,0,7.5,3.4,7.5,7.5s-3.4,7.5-7.5,7.5   S10.7,81.2,10.7,77.1z M84.2,92.6c-4.1,0-7.5-3.4-7.5-7.5c0-4.1,3.4-7.5,7.5-7.5c0.6,0,1.2,0.1,1.8,0.2c1.4,0.3,2.7,1.1,3.7,2.2   l0,0c0.9,0.9,1.5,2.1,1.8,3.3c0,0.2,0.1,0.4,0.1,0.5c0.1,0.5,0.1,0.9,0.1,1.3C91.7,89.3,88.3,92.6,84.2,92.6z M93.7,80.9   c0,0-0.5,1.2-1.1,2.3c0-0.1,0-0.1,0-0.2c-0.3-1.4-1-2.7-2-3.8l0,0c-1-1.1-2.3-1.9-3.8-2.4V66.3h-0.5c-0.6,0-14.3,0.1-23.5,5.9   c-9.2-5.8-23.5-5.9-24.2-5.9c0,0,0,0,0,0h-0.5v25.6c-6.7-0.9-12.6-2.5-17.7-4.6c-0.8-0.4-1.8-1-2.5-1.6c0.2,0,0.4,0,0.6,0   c4.7,0,8.6-3.9,8.6-8.6c0-4.7-3.9-8.6-8.6-8.6c-0.1,0-0.3,0-0.4,0L17,65.6c8.1-9,21.3-12.5,24.4-13.3l10.9,8.5l10.9-8.5   c3.9,0.9,28.3,7.4,30.6,26.4C94,79.5,93.9,80.2,93.7,80.9z"/></g></g>        </g></svg>